<svg width="20" height="20" viewBox="0 0 20 20" fill="none" xmlns="http://www.w3.org/2000/svg">
<path d="M18.3813 15.179C19.3375 13.6211 19.8425 11.8283 19.84 10.0003V9.9999C19.8425 8.17187 19.3375 6.37902 18.3812 4.82106L18.3758 4.81256C17.4886 3.36655 16.2454 2.17222 14.765 1.34368C13.2846 0.515143 11.6165 0.0800851 9.92003 0.0800781C8.22356 0.0800712 6.55542 0.515116 5.07502 1.34364C3.59462 2.17217 2.35143 3.36649 1.46423 4.81249L1.45872 4.8211C0.504804 6.38013 7.08051e-06 8.17233 0 10C-7.08036e-06 11.8278 0.504776 13.62 1.45868 15.179L1.46428 15.1877C2.35149 16.6337 3.59468 17.828 5.07507 18.6565C6.55545 19.485 8.22358 19.9201 9.92004 19.9201C11.6165 19.9201 13.2846 19.485 14.765 18.6565C16.2454 17.828 17.4886 16.6336 18.3757 15.1877L18.3813 15.179ZM11.188 18.2199C10.999 18.4023 10.7814 18.5526 10.5439 18.6648C10.3489 18.7574 10.1358 18.8055 9.91999 18.8055C9.70416 18.8055 9.49104 18.7574 9.29609 18.6648C8.84412 18.4339 8.45722 18.0934 8.17077 17.6745C7.58574 16.8291 7.1522 15.8884 6.8895 14.8945C7.89864 14.8324 8.90881 14.8008 9.92 14.7996C10.9308 14.7996 11.941 14.8313 12.9507 14.8945C12.8053 15.4056 12.6236 15.9056 12.4072 16.3908C12.1221 17.0732 11.7082 17.6943 11.188 18.2199ZM1.134 10.5574H5.13522C5.16127 11.6739 5.28229 12.7861 5.49696 13.8821C4.40318 13.9783 3.3122 14.1105 2.22401 14.2786C1.58679 13.1354 1.2143 11.8637 1.134 10.5574ZM2.22401 5.7215C3.31177 5.89006 4.40313 6.02228 5.49811 6.11817C5.28301 7.21405 5.16172 8.32628 5.13557 9.44277H1.134C1.21429 8.13641 1.58679 6.86473 2.22401 5.7215ZM8.65199 1.78022C8.84101 1.59782 9.05858 1.44755 9.29609 1.33536C9.49104 1.24273 9.70416 1.19467 9.91999 1.19467C10.1358 1.19467 10.3489 1.24273 10.5439 1.33536C10.9959 1.56622 11.3828 1.90669 11.6692 2.32564C12.2542 3.17102 12.6878 4.11169 12.9505 5.10562C11.9413 5.16772 10.9312 5.19935 9.92 5.20052C8.90924 5.20051 7.89901 5.16887 6.88932 5.10561C7.03473 4.59457 7.21635 4.09455 7.43282 3.60932C7.71784 2.92692 8.13179 2.30588 8.65199 1.78022ZM18.706 9.44277H14.7048C14.6787 8.32628 14.5577 7.21404 14.343 6.11807C15.4368 6.02182 16.5278 5.88963 17.616 5.72149C18.2532 6.86473 18.6257 8.13641 18.706 9.44277ZM6.61799 13.7954C6.40002 12.729 6.27691 11.6455 6.25011 10.5574H13.59C13.5634 11.6455 13.4406 12.7291 13.2228 13.7955C12.1231 13.7233 11.0221 13.6865 9.92 13.685C8.81866 13.685 7.71799 13.7218 6.61799 13.7954ZM13.222 6.20472C13.44 7.2711 13.5631 8.35468 13.5899 9.44277H6.24999C6.27654 8.35468 6.39942 7.27108 6.6172 6.20467C7.71692 6.27682 8.81785 6.31364 9.92 6.31511C11.0213 6.31511 12.122 6.27831 13.222 6.20472ZM14.7044 10.5574H18.706C18.6257 11.8637 18.2532 13.1354 17.616 14.2786C16.5282 14.1101 15.4369 13.9778 14.3419 13.882C14.557 12.7861 14.6783 11.6739 14.7044 10.5574ZM16.9477 4.69561C15.9966 4.83283 15.0427 4.94147 14.086 5.02152C13.914 4.38131 13.6922 3.75554 13.4227 3.14992C13.1766 2.59261 12.8669 2.0656 12.4998 1.57937C14.2738 2.12342 15.8305 3.21408 16.9477 4.69561ZM3.69362 3.7737C4.71124 2.75511 5.96318 2.0017 7.3397 1.5795C7.31881 1.60655 7.29733 1.6324 7.27674 1.66001C6.56921 2.67853 6.05384 3.81782 5.75605 5.0217C4.79925 4.94066 3.84467 4.83196 2.89231 4.69561C3.13793 4.37027 3.40567 4.06224 3.69362 3.7737ZM2.8923 15.3045C3.84335 15.1673 4.79725 15.0587 5.75401 14.9786C5.92596 15.6188 6.14774 16.2446 6.4173 16.8502C6.66341 17.4075 6.97309 17.9345 7.34016 18.4208C5.56618 17.8767 4.00947 16.7861 2.8923 15.3045ZM16.1464 16.2264C15.1288 17.245 13.8768 17.9984 12.5003 18.4206C12.5212 18.3936 12.5426 18.3677 12.5632 18.3401C13.2708 17.3216 13.7862 16.1823 14.0839 14.9784C15.0408 15.0595 15.9953 15.1682 16.9477 15.3045C16.7021 15.6299 16.4343 15.9379 16.1464 16.2264Z" fill="#222E50"/>
</svg>

